<?xml version="1.0" encoding="UTF-8" standalone="no"?>
<svg
   xmlns:dc="http://purl.org/dc/elements/1.1/"
   xmlns:cc="http://creativecommons.org/ns#"
   xmlns:rdf="http://www.w3.org/1999/02/22-rdf-syntax-ns#"
   xmlns:svg="http://www.w3.org/2000/svg"
   xmlns="http://www.w3.org/2000/svg"
   xmlns:sodipodi="http://sodipodi.sourceforge.net/DTD/sodipodi-0.dtd"
   xmlns:inkscape="http://www.inkscape.org/namespaces/inkscape"
   id="Layer_1"
   data-name="Layer 1"
   viewBox="0 0 400 300"
   width="406"
   height="306"
   class="illustration styles_illustrationTablet__1DWOa"
   version="1.1"
   sodipodi:docname="taking_notes.svg"
   inkscape:version="0.92.5 (2060ec1f9f, 2020-04-08)">
  <metadata
     id="metadata63">
    <rdf:RDF>
      <cc:Work
         rdf:about="">
        <dc:format>image/svg+xml</dc:format>
        <dc:type
           rdf:resource="http://purl.org/dc/dcmitype/StillImage" />
      </cc:Work>
    </rdf:RDF>
  </metadata>
  <defs
     id="defs61" />
  <sodipodi:namedview
     pagecolor="#ffffff"
     bordercolor="#666666"
     borderopacity="1"
     objecttolerance="10"
     gridtolerance="10"
     guidetolerance="10"
     inkscape:pageopacity="0"
     inkscape:pageshadow="2"
     inkscape:window-width="1366"
     inkscape:window-height="703"
     id="namedview59"
     showgrid="false"
     inkscape:zoom="0.77124183"
     inkscape:cx="203"
     inkscape:cy="153"
     inkscape:window-x="0"
     inkscape:window-y="0"
     inkscape:window-maximized="1"
     inkscape:current-layer="Layer_1" />
  <path
     d="m 86.248839,76.637071 c 0,0 -35.889118,50.961869 -33.948733,90.243709 1.940387,39.2818 0,57.98524 0,57.98524 l 55.389184,4.36465 10.9688,-29.52285 z"
     id="path2"
     inkscape:connector-curvature="0"
     style="fill:#f4a28c;stroke-width:1.56988096" />
  <path
     d="m 78.984419,183.09451 c 0,0 14.143969,26.54135 3.207251,44.12289 l 25.46555,2.01327 10.96881,-29.52285 c 0,0 -9.71797,-30.96748 -39.641611,-16.61331 z"
     id="path4"
     inkscape:connector-curvature="0"
     style="opacity:0.08999999;stroke-width:1.56988096" />
  <polygon
     points="143.78,185.09 255.81,167.6 263.73,158.05 253.28,151.42 240.47,69.35 146.89,83.96 136.36,77.28 128.44,86.84 "
     id="polygon6"
     transform="matrix(1.6036246,0,0,1.5368476,-123.82598,-81.980972)"
     style="fill:#ffd200" />
  <polygon
     points="143.78,185.09 255.81,167.6 263.73,158.05 253.28,151.42 240.47,69.35 146.89,83.96 136.36,77.28 128.44,86.84 "
     id="polygon8"
     transform="matrix(1.6036246,0,0,1.5368476,-123.82598,-81.980972)"
     style="opacity:0.08999999" />
  <rect
     x="87.707581"
     y="50.421463"
     width="181.65862"
     height="152.98537"
     transform="matrix(0.98899997,-0.14791574,0.1607233,0.9869995,0,0)"
     id="rect10"
     style="fill:#ffd200;stroke-width:1.569947" />
  <ellipse
     cx="132.67377"
     cy="50.756561"
     id="circle12"
     rx="9.3651676"
     ry="8.9751892"
     style="opacity:0.08999999;stroke-width:1.56988096" />
  <rect
     x="117.22493"
     y="36.880581"
     width="10.205181"
     height="34.569393"
     rx="4.2775245"
     transform="matrix(0.98899997,-0.14791574,0.1607233,0.9869995,0,0)"
     id="rect14"
     style="fill:#24285b;stroke-width:1.569947" />
  <ellipse
     cx="167.72902"
     cy="45.500538"
     id="circle16"
     rx="9.3651676"
     ry="8.9751892"
     style="opacity:0.08999999;stroke-width:1.56988096" />
  <rect
     x="152.67429"
     y="36.865883"
     width="10.205181"
     height="34.569393"
     rx="4.2775245"
     transform="matrix(0.98899997,-0.14791574,0.1607233,0.9869995,0,0)"
     id="rect18"
     style="fill:#24285b;stroke-width:1.569947" />
  <ellipse
     cx="201.56548"
     cy="40.444313"
     id="circle20"
     rx="9.3651676"
     ry="8.9751892"
     style="opacity:0.08999999;stroke-width:1.56988096" />
  <rect
     x="186.86949"
     y="36.87923"
     width="10.205181"
     height="34.569393"
     rx="4.2775245"
     transform="matrix(0.98899997,-0.14791574,0.1607233,0.9869995,0,0)"
     id="rect22"
     style="fill:#24285b;stroke-width:1.569947" />
  <ellipse
     cx="235.38594"
     cy="35.388088"
     id="circle24"
     rx="9.3651676"
     ry="8.9751892"
     style="opacity:0.08999999;stroke-width:1.56988096" />
  <rect
     x="221.08319"
     y="36.877377"
     width="10.205181"
     height="34.569393"
     rx="4.2775245"
     transform="matrix(0.98899997,-0.14791574,0.1607233,0.9869995,0,0)"
     id="rect26"
     style="fill:#24285b;stroke-width:1.569947" />
  <ellipse
     cx="122.61903"
     cy="84.367409"
     id="circle28"
     rx="4.0411339"
     ry="3.8728559"
     style="opacity:0.46000001;fill:#ffffff;stroke-width:1.56988096" />
  <ellipse
     cx="127.12523"
     cy="112.04604"
     id="circle30"
     rx="4.0411339"
     ry="3.8728559"
     style="opacity:0.46000001;fill:#ffffff;stroke-width:1.56988096" />
  <ellipse
     cx="131.63142"
     cy="139.72467"
     id="circle32"
     rx="4.0411339"
     ry="3.8728559"
     style="opacity:0.46000001;fill:#ffffff;stroke-width:1.56988096" />
  <line
     x1="140.99658"
     y1="81.616447"
     x2="254.48509"
     y2="64.634285"
     id="line34"
     style="fill:none;stroke:#ffffff;stroke-width:3.13976192;stroke-linecap:round;stroke-linejoin:bevel" />
  <line
     x1="145.50275"
     y1="109.29509"
     x2="259.00732"
     y2="92.312927"
     id="line36"
     style="fill:none;stroke:#ffffff;stroke-width:3.13976192;stroke-linecap:round;stroke-linejoin:bevel" />
  <line
     x1="150.00893"
     y1="136.97369"
     x2="263.51349"
     y2="120.00691"
     id="line38"
     style="fill:none;stroke:#ffffff;stroke-width:3.13976192;stroke-linecap:round;stroke-linejoin:bevel" />
  <path
     d="m 82.14356,134.83749 35.00712,-26.49526 c 12.70071,-9.605288 28.67282,7.93014 16.70977,18.44218 -0.67352,0.584 -1.41119,1.18336 -2.22903,1.76737 a 78.353097,75.090375 0 0 0 -25.97873,33.3957 c 0,0 5.85324,28.06285 -15.619298,36.48478 -21.472532,8.42191 -48.958658,-24.23611 -7.889832,-63.59477 z"
     id="path40"
     inkscape:connector-curvature="0"
     style="fill:#f4a28c;stroke-width:1.56988096" />
  <polygon
     points="151.16,202.5 147.97,245.51 95.09,240.64 104.56,196.01 "
     id="polygon42"
     transform="matrix(1.6036246,0,0,1.5368476,-123.82598,-81.980972)"
     style="fill:#68e1fd" />
  <path
     d="m 222.55693,116.81026 c -10.02265,0.33811 -14.6892,-11.77225 -7.15217,-18.119421 14.43262,-12.110363 39.08033,-25.988097 69.35676,-15.015005 48.79829,17.658376 71.24904,94.931066 71.24904,94.931066 l -44.46851,20.30178 c 0,0 -39.27277,-41.32585 -75.56278,-51.28462 -12.829,-3.55012 -10.13492,-22.0845 3.20726,-21.25461 l 1.47532,0.13833 c 18.05681,2.336 28.4964,16.16763 40.2189,11.01919 11.72249,-5.14844 15.61931,-27.26367 -6.83144,-32.65801 -17.36725,-4.18023 -30.24436,11.24974 -51.49238,11.9413 z"
     id="path44"
     inkscape:connector-curvature="0"
     style="fill:#f4a28c;stroke-width:1.56988096" />
  <polygon
     points="248.04,127.22 200.05,124.46 188.39,128.77 201.05,137.75 281.19,155.11 284.29,139 "
     id="polygon46"
     transform="matrix(1.6036246,0,0,1.5368476,-123.82598,-81.980972)"
     style="opacity:0.08999999" />
  <rect
     x="222.07018"
     y="55.427162"
     width="115.92146"
     height="19.141098"
     transform="matrix(0.97906408,0.20355226,-0.22077885,0.97532389,0,0)"
     id="rect48"
     style="fill:#24285b;stroke-width:1.57000303" />
  <polygon
     points="202.53,130.07 205.17,117.92 188.39,120.64 "
     id="polygon50"
     transform="matrix(1.6036246,0,0,1.5368476,-123.82598,-81.980972)"
     style="fill:#ffffff" />
  <rect
     x="337.97726"
     y="55.411663"
     width="27.387688"
     height="19.141098"
     transform="matrix(0.97906408,0.20355226,-0.22077885,0.97532389,0,0)"
     id="rect52"
     style="fill:#68e1fd;stroke-width:1.57000303" />
  <polygon
     points="303.82,168.29 323.65,245.51 267.66,245.51 261.57,179.98 "
     id="polygon54"
     transform="matrix(1.6036246,0,0,1.5368476,-123.82598,-81.980972)"
     style="fill:#68e1fd" />
  <path
     d="m 89.87303,98.844522 a 67.207906,64.409284 0 0 0 -7.72947,35.992968 l 12.091329,-9.22108 z"
     id="path56"
     inkscape:connector-curvature="0"
     style="opacity:0.08999999;stroke-width:1.56988096" />
</svg>
